<svg width="640" height="640" viewBox="0 0 640 640" fill="none" xmlns="http://www.w3.org/2000/svg">
  <defs>
    <linearGradient id="goldGradient" x1="0" y1="0" x2="1" y2="1">
      <stop offset="0%" stop-color="#D4AF37" />
      <stop offset="100%" stop-color="#F5D77A" />
    </linearGradient>
  </defs>
  <rect width="640" height="640" rx="48" fill="#000" />
  <rect x="24" y="24" width="592" height="592" rx="40" fill="url(#goldGradient)" />
  <rect x="36" y="36" width="568" height="568" rx="32" fill="#0a0a0a" />
  <g fill="#fff">
    <rect x="80" y="80" width="112" height="112" rx="16" />
    <rect x="448" y="80" width="112" height="112" rx="16" />
    <rect x="80" y="448" width="112" height="112" rx="16" />
    <rect x="176" y="176" width="64" height="64" />
    <rect x="272" y="176" width="64" height="64" />
    <rect x="368" y="176" width="64" height="64" />
    <rect x="176" y="272" width="64" height="64" />
    <rect x="272" y="272" width="64" height="64" />
    <rect x="368" y="272" width="64" height="64" />
    <rect x="272" y="368" width="64" height="64" />
    <rect x="176" y="368" width="64" height="64" />
    <rect x="368" y="368" width="64" height="64" />
    <rect x="176" y="464" width="32" height="32" />
    <rect x="272" y="464" width="32" height="32" />
    <rect x="368" y="464" width="32" height="32" />
    <rect x="464" y="176" width="32" height="32" />
    <rect x="464" y="272" width="32" height="32" />
    <rect x="464" y="368" width="32" height="32" />
    <rect x="176" y="528" width="64" height="64" />
    <rect x="272" y="528" width="64" height="64" />
  </g>
  <rect x="56" y="56" width="88" height="88" rx="16" stroke="#D4AF37" stroke-width="16" />
  <rect x="448" y="56" width="88" height="88" rx="16" stroke="#D4AF37" stroke-width="16" />
  <rect x="56" y="448" width="88" height="88" rx="16" stroke="#D4AF37" stroke-width="16" />
</svg>